<svg xmlns="http://www.w3.org/2000/svg" version="1.1" xmlns:xlink="http://www.w3.org/1999/xlink" xmlns:svgjs="http://svgjs.dev/svgjs" viewBox="0 0 800 800"><defs><linearGradient x1="50%" y1="0%" x2="50%" y2="100%" id="uundulate-grad"><stop stop-color="hsl(164, 83%, 60%)" stop-opacity="1" offset="45%"></stop><stop stop-color="hsl(180, 100%, 95%)" stop-opacity="1" offset="100%"></stop></linearGradient></defs><g stroke-width="2" stroke="url(#uundulate-grad)" fill="none"><path d="M754.656008055962 196.07212183136028C798.9904571962902 300.25365861547925 762.7409089449673 547.6052080233533 690.3770438779229 634.6845225580674C618.0131788108786 721.7638370927816 545.5964418397713 680.9889444514926 407.30945573414795 614.0528315979872C269.0224696285246 547.1167187444817 11.961545514639283 413.27444869534315 26.59951057093093 313.39118086124074C41.23747562722258 213.50791302713844 325.8932510283005 159.05461662552074 477.57168800434874 134.61314599429585C629.2501249803971 110.1716753630709 710.3215589156339 91.89058504724119 754.656008055962 196.07212183136028C798.9904571962902 300.25365861547925 762.7409089449673 547.6052080233533 690.3770438779229 634.6845225580674 "></path><path d="M738.5351930258084 205.3415916464653C780.8544399324851 304.7876040313063 746.2525984198587 540.8959011933678 677.1779999467709 624.0170650674131C608.1034014736831 707.1382289414582 538.978334364899 668.216740511137 406.9771203549857 604.3231782418818C274.97590634507253 540.4296159726267 29.59956969090922 412.6710854711762 43.572172699187604 317.32796617498764C57.544775707466044 221.98484687879903 329.2616522266767 170.00670031361852 474.04561479472295 146.67620562017657C618.8295773627691 123.34571092673457 696.2159461191314 105.89557926162445 738.5351930258084 205.3415916464653C780.8544399324851 304.7876040313063 746.2525984198587 540.8959011933678 677.1779999467709 624.0170650674131 "></path><path d="M722.4144695483889 214.61106146157044C762.7185142214144 309.3215494471332 729.7643794474845 534.1865943633823 663.9790475683533 613.3496075767587C598.1937156892219 692.5126207901352 532.3603184427609 655.4445365707816 406.6448765285578 594.5935248857766C280.9294346143547 533.7425132007718 47.23768541991353 412.06772224700944 60.54492638017871 321.26475148873453C73.85216734044383 230.46178073045962 332.63014497778727 180.9587840017163 470.5196331378313 158.7392652460573C608.4091212978753 136.5197464903983 682.1104248753633 119.90057347600765 722.4144695483889 214.61106146157044C762.7185142214144 309.3215494471332 729.7643794474845 534.1865943633823 663.9790475683533 613.3496075767587 "></path><path d="M706.2937765885475 223.88047024151922C744.5826190279219 313.85543382780384 713.2761909926884 527.4772264982405 650.7801257075137 602.6820890509481C588.284060422339 677.8869516036557 525.742333038201 642.6722715952698 406.31266321970804 584.8638104945152C286.8829934012151 527.0553493937605 64.87583166649597 411.4642979876862 77.51771057874788 325.20147576732506C90.15958949099979 238.93865354696402 335.9986682464761 191.91080665465785 466.9936819985178 170.80226383678178C597.9886957505596 149.6937210189057 668.0049341491732 133.9055066552346 706.2937765885475 223.88047024151922C744.5826190279219 313.85543382780384 713.2761909926884 527.4772264982405 650.7801257075137 602.6820890509481 "></path><path d="M690.17302259355 233.1499400566243C726.446662799273 318.38937924363086 696.7879415027361 520.767919668255 637.5811428115179 592.0146315602938C578.3743441202998 663.2613434523325 519.1242865984848 629.9000676549144 405.98038887570203 575.1341571384099C292.8364911529193 520.3682466219055 82.51391687792216 410.86093476351937 94.4904337421608 329.13826108107196C106.46695060639945 247.4155873986246 339.36713048000854 202.86289034275563 463.46766982404813 182.8653234626625C587.5682091680878 162.86775658256937 653.8993823878269 147.9105008696178 690.17302259355 233.1499400566243C726.446662799273 318.38937924363086 696.7879415027361 520.767919668255 637.5811428115179 592.0146315602938 "></path><path d="M674.0522991161306 242.41937935415126C708.3107370882024 322.92329414187964 680.2997225303618 514.0585823206912 624.3821904331003 581.3471435520613C568.4646583358387 648.6357047834313 512.5062706763467 617.1278331969806 405.64814504927415 565.4044732647266C298.79001942220157 513.6811133324724 100.15203260692653 410.2575410217744 111.46318742315191 333.07501587724073C122.77434223937729 255.89249073270707 342.73562323111923 213.81494351327524 459.9416881671566 194.9283525709651C577.147753103194 176.04176162865497 639.7938611440587 161.91546456642288 674.0522991161306 242.41937935415126C708.3107370882024 322.92329414187964 680.2997225303618 514.0585823206912 624.3821904331003 581.3471435520613 "></path><path d="M657.9316061562893 251.68881865167822C690.1748418947097 327.4572090401284 663.8115340755656 507.3492449731277 611.1832685722607 570.6796555438289C558.5550030689558 634.01006611453 505.8882852717868 604.3555987390471 405.3159317404244 555.6747893910432C304.743578209062 506.9939800430393 117.79017885350896 409.6541472800294 128.43597162172108 337.0117706734095C139.0817643899332 264.3693940667896 346.10414649980794 224.7669966837949 456.4157370278432 206.9913816792677C566.7273275558783 189.2157666747405 625.6883704178688 175.92042826322796 657.9316061562893 251.68881865167822C690.1748418947097 327.4572090401284 663.8115340755656 507.3492449731277 611.1832685722607 570.6796555438289 "></path><path d="M641.8108826788698 260.9582884667833C672.038916183639 331.9911544559553 647.3233151031915 500.6399381431422 597.984316193843 560.0121980531744C548.6453172844947 619.3844579632068 499.27026934964874 591.5833947986916 404.9836879139965 545.945136034938C310.69710647834415 500.30687727118425 135.42829458251327 409.05078405586255 145.40872530271213 340.94855598715634C155.38915602291098 272.8463279184502 349.47263925091863 235.7190803718927 452.88975537095166 219.05444130514843C556.3068714909846 202.38980223840417 611.5828491741006 189.92542247761116 641.8108826788698 260.9582884667833C672.038916183639 331.9911544559553 647.3233151031915 500.6399381431422 597.984316193843 560.0121980531744 "></path><path d="M625.6901744602394 270.2277277643102C653.9030057313573 336.52506935420416 630.8351113896063 493.93060079557847 584.7853790742145 549.3447100449421C538.7356467588227 604.7588192943056 492.65226868629975 578.811160340758 404.6514593463577 536.2154521612546C316.6506500064155 493.61974398175107 153.06642557030665 408.44739031411746 162.3814942424923 344.88531078332505C171.69656291467788 281.32323125253265 352.8411472608183 246.67113354241235 449.3637889728491 231.11747041345103C545.8864306848799 215.5638072844897 597.4773431891215 203.9303861744163 625.6901744602394 270.2277277643102C653.9030057313573 336.52506935420416 630.8351113896063 493.93060079557847 584.7853790742145 549.3447100449421 "></path><path d="M609.5694357240309 279.4971518030481C635.7670647614975 341.05896899366394 614.346877158443 487.2212481892258 571.5864114370078 538.6772067779204C528.8259457155724 590.1331653666152 486.03423750537263 566.0389106240353 404.3192002611406 526.4857530287823C322.60416301690873 486.93259543352895 170.7045260405219 407.8439813135834 179.35423266469428 348.82205032070476C188.0039392888666 289.8001193278261 356.2096247531399 257.62317145414295 445.8377920571685 243.18048426296457C535.4659593611971 228.73779707178625 583.3718066865642 217.9353346124323 609.5694357240309 279.4971518030481C635.7670647614975 341.05896899366394 614.346877158443 487.2212481892258 571.5864114370078 538.6772067779204 "></path><path d="M593.4487275054005 288.76663687694224C617.6311543092158 345.5929296682799 597.8586734448578 480.51195661802933 558.3874743173792 528.0097645460553C518.9162751899004 575.5075724740811 479.41623684202364 553.2667219424688 403.9869716935019 516.756114931466C328.5577065449801 480.24550792046307 188.34265702831533 407.2406333482056 196.3270016044744 352.7588508932407C204.3113461806335 298.27706843827576 359.57813276303955 268.5752704010298 442.311825659066 255.24355914763436C525.0455185550924 241.91184789423897 569.2663007015851 231.94034408560458 593.4487275054005 288.76663687694224C617.6311543092158 345.5929296682799 597.8586734448578 480.51195661802933 558.3874743173792 528.0097645460553 "></path><path d="M577.3279582516138 298.0360761744692C599.4951828217779 350.1268445665287 581.3704086961164 473.8026192704657 545.1884761625943 517.3422765378227C509.0065436290721 560.8819338051799 472.7981751435184 540.4944874845353 403.65468209070673 507.0264310577827C334.5111890378951 473.5583746310299 205.98072698095245 406.63723960646064 213.29970950909825 356.69560568940943C220.6186920372441 306.7539717723583 362.94657973778305 279.52732357154946 438.7857982258072 267.30658825593696C514.6250167138314 255.08585294032451 555.1607336814498 245.94530778240966 577.3279582516138 298.0360761744692C599.4951828217779 350.1268445665287 581.3704086961164 473.8026192704657 545.1884761625943 517.3422765378227 "></path><path d="M561.2072500329834 307.3055002132071C581.3592723694962 354.66074420598846 564.8822049825313 467.093266664113 531.9895390429657 506.6747732708012C499.09687310339996 546.2562798774895 466.1801744801695 527.7222377678127 403.3224535230679 497.29673192531016C340.4647325659664 466.87122608280777 223.61885796874583 406.0338306059266 230.27247844887842 360.63234522678914C236.926098929011 315.2308598476517 366.3150877476827 290.47936148328 435.2598318277047 279.3696021054505C504.20457590772673 268.259842727621 541.0552276964706 259.9502562204257 561.2072500329834 307.3055002132071C581.3592723694962 354.66074420598846 564.8822049825313 467.093266664113 531.9895390429657 506.6747732708012 "></path><path d="M545.086526555564 316.5749700283121C563.2233466584255 359.1946896218154 548.393986010157 460.3839598341275 518.7905866645481 496.0073157801469C489.187187318939 531.6306717261663 459.56215855803146 514.9500338274572 402.9902096966401 487.567078569205C346.4182608352487 460.1841233109528 241.25697369775014 405.4304673817597 247.24523212986946 364.569130540536C253.2334905619888 323.70779369931233 369.68358049879333 301.4314451713778 431.7338501708132 291.4326617313312C493.784119842833 281.4338782912847 526.9497064527025 273.9552504348089 545.086526555564 316.5749700283121C563.2233466584255 359.1946896218154 548.393986010157 460.3839598341275 518.7905866645481 496.0073157801469 "></path><path d="M528.9658183369337 325.8444093258391C545.0874362061439 363.7286045200642 531.9057822965719 453.67462248656386 505.5916495449194 485.33982777191443C479.27751679326695 517.005033057265 452.94415789468246 502.17779936952354 402.65798112900126 477.83739469552165C352.37180436332005 453.49699002151965 258.8951046855435 404.8270736400147 264.2180010696496 368.50588533670475C269.54089745375563 332.1846970333948 373.05208850869303 312.38349834189745 428.20788377271066 303.4956908396339C483.3636790367282 294.60788333737025 512.8442004677235 287.960214131614 528.9658183369337 325.8444093258391C545.0874362061439 363.7286045200642 531.9057822965719 453.67462248656386 505.5916495449194 485.33982777191443 "></path><path d="M512.845049083147 335.11384862336604C526.951464718706 368.262519418313 515.4175175478305 446.9652851390002 492.3926513901346 474.672339763682C469.3677852324387 502.3793943883637 446.3260961961772 489.40556491158986 402.3256915262062 468.1077108218383C358.3252868562351 446.8098567320865 276.5331746381807 404.22367989826967 281.1907089742735 372.44264013287346C285.8482433103663 340.66160036747726 376.4205354834365 323.3355515124171 424.6818563394519 315.5587199479365C472.94317719546734 307.7818883834558 498.7386334475881 301.9651778284191 512.845049083147 335.11384862336604C526.951464718706 368.262519418313 515.4175175478305 446.9652851390002 492.3926513901346 474.672339763682 "></path><path d="M496.72434086451665 344.3833184384711C508.81555426642433 372.79646483413995 498.92931383424525 440.25597830901467 479.193714270506 464.00488227302765C459.4581147067666 487.7537862370406 439.7080955328282 476.6333609712344 401.99346295856736 458.378057465733C364.27883038430645 440.12275396023153 294.17130562597407 403.6203166741028 298.1634779140536 376.37942544662036C302.15565020213313 349.1385342191379 379.7890434933362 334.2876352005149 421.1558899413494 327.6217795738172C462.5227363893626 320.95592394711946 484.63312746260897 315.9701720428023 496.72434086451665 344.3833184384711C508.81555426642433 372.79646483413995 498.92931383424525 440.25597830901467 479.193714270506 464.00488227302765 "></path><path d="M480.60363264588625 353.6527577359981C490.67964381414265 377.3303797323888 482.4411101206602 433.54664096145103 465.9947771508774 453.33739426479514C449.5484441810945 473.1281475681393 433.0900948694793 463.86112651330086 401.6612343909285 448.6483735920496C370.23237391237774 433.4356206707984 311.80943661376745 403.01692293235783 315.1362468538337 380.3161802427891C318.46305709390003 357.6154375532204 383.1575515032359 345.23968837103456 417.6299235432469 339.6848086821198C452.1022955832579 334.12992899320506 470.52762147762985 329.97513573960737 480.60363264588625 353.6527577359981C490.67964381414265 377.3303797323888 482.4411101206602 433.54664096145103 465.9947771508774 453.33739426479514 "></path><path d="M464.48290916846685 362.92219703352504C472.54371810307197 381.8642946306376 465.95289114828597 426.8373036138874 452.7958247724597 442.6699062565627C439.6387583966335 458.50250889923797 426.47207894734123 451.08889205536724 401.3289905645006 438.9186897183663C376.18590218166 426.7484873813653 329.44755234277176 402.4135291906128 332.1090005348248 384.25293503895784C334.7704487268778 366.09234088730284 386.5260442543465 356.1917415415542 414.1039418863553 351.7478377904224C441.6818395183641 347.3039340392906 456.4221002338617 343.98009943641244 464.48290916846685 362.92219703352504C472.54371810307197 381.8642946306376 465.95289114828597 426.8373036138874 452.7958247724597 442.6699062565627 "></path><path d="M448.3621704322583 372.19165158984106C454.40777713321216 386.3982247876754 449.4646569171226 420.1279815251128 439.596857135253 432.0024335071193C429.72905735338327 443.87688548912575 419.8540477664141 438.3166728562227 400.99673147928365 429.189021103472C382.1394151921532 420.06136935072124 347.085652812987 401.8101507076569 349.0817389570268 388.1897050939156C351.0778251010666 374.5692594801744 389.8945217466681 367.1438099708629 410.5779449706747 363.8108821575141C431.26136819468127 360.4779543441652 442.3165637313045 357.9850783920066 448.3621704322583 372.19165158984106C454.40777713321216 386.3982247876754 449.4646569171226 420.1279815251128 439.596857135253 432.0024335071193 "></path><path d="M432.2414469548389 381.461106146157C436.2718514221415 390.9321549447133 432.97643794474845 413.4186594363382 426.3979047568353 421.33496075767584C419.8193715689222 429.25126207901354 413.2360318442761 425.5444536570782 400.66448765285577 419.4593524885777C388.0929434614355 413.3742513200772 364.7237685419914 401.20677222470096 366.05449263801785 392.12647514887345C367.3852167340444 383.04617807304595 393.2630144977787 378.0958784001716 407.0519633137831 375.87392652460574C420.8409121297875 373.6519746490398 428.2110424875363 371.9900573476008 432.2414469548389 381.461106146157C436.2718514221415 390.9321549447133 432.97643794474845 413.4186594363382 426.3979047568353 421.33496075767584 "></path><path d="M416.12072347741946 390.730545443684C418.13592571107074 395.46606984296216 416.4882189723742 406.70932208877457 413.1989523784177 410.6674727494434C409.9096857844611 414.6256234101122 406.61801592213806 412.77221919914456 400.3322438264279 409.7296686148943C394.0464717307177 406.68711803064406 382.3618842709957 400.6033784829559 383.02724631900895 396.06322994504217C383.6926083670222 391.5230814071285 396.63150724888936 389.0479315706913 403.5259816568916 387.93695563290834C410.42045606489376 386.8259796951254 414.1055212437682 385.99502104440586 416.12072347741946 390.730545443684C418.13592571107074 395.46606984296216 416.4882189723742 406.70932208877457 413.1989523784177 410.6674727494434 "></path></g></svg>